# xmcd CD database file
#
# Track frame offsets:
#	150
#	18172
#	41955
#	58015
#	76929
#	92771
#	122513
#	141305
#	162842
#	183385
#	200141
#	218283
#	247089
#
# Disc length: 3771 seconds
#
# Revision: 1
# Processed by: cddbd v1.5.1PL2 Copyright (c) Steve Scherf et al.
# Submitted via: CDex 1.51
#
DISCID=b20eb90d
DTITLE=Claudine Muno and the Luna boots - Monsters
DYEAR=2006
DGENRE=Jazz
TTITLE0=Alaska
TTITLE1=Monsters
TTITLE2=Hunting
TTITLE3=Au Secours
TTITLE4=Kill You
TTITLE5=Underground
TTITLE6=The Skin Of Our Teeth
TTITLE7=Rain Rain
TTITLE8=Spin
TTITLE9=In My Head
TTITLE10=A Part From Death
TTITLE11=Jeremy
TTITLE12=Sinon Tout Va Bien
EXTD=YEAR: 2006
EXTT0=
EXTT1=
EXTT2=
EXTT3=
EXTT4=
EXTT5=
EXTT6=
EXTT7=
EXTT8=
EXTT9=
EXTT10=
EXTT11=
EXTT12=
PLAYORDER=
